{"title":"Nightcrawler 2014 DVDSCR XviD AC3-RAV3N","uid":11626610,"size":1380018334,"categoryP":"video","categoryS":"movies","magnet":"?xt=urn:btih:3c90d7dcee8fcacf9b55d02fbd7ae7a49e0f6fbd&amp;dn=Nightcrawler+2014+DVDSCR+XviD+AC3-RAV3N&amp;tr=udp%3A%2F%2Ftracker.openbittorrent.com%3A80&amp;tr=udp%3A%2F%2Fopen.demonii.com%3A1337&amp;tr=udp%3A%2F%2Ftracker.coppersurfer.tk%3A6969&amp;tr=udp%3A%2F%2Fexodus.desync.com%3A6969","seeders":13,"leechers":2,"uploader":"HeroMaster","files":-1,"time":1417629083,"description":"Nightcrawler 2014 DVDSCR XviD AC3-RAV3N\n\n\nFormat                      : AVI\nFormat/Info                 : Audio Video Interleave\nFormat profile              : OpenDML\nFile size                   : 1.27 GiB\nDuration                    : 1h 57mn\nOverall bit rate            : 1 537 Kbps\n\nVideo\nID                          : 0\nFormat                      : MPEG-4 Visual\nCodec ID                    : XVID\nCodec ID/Hint               : XviD\nDuration                    : 1h 57mn\nBit rate                    : 1 364 Kbps\nWidth                       : 704 pixels\nHeight                      : 360 pixels\nDisplay aspect ratio        : 1.956\nFrame rate                  : 25.000 fps\nColor space                 : YUV\nChroma subsampling          : 4:2:0\nCompression mode            : Lossy\nBits/(Pixel*Frame)          : 0.215\nStream size                 : 1.12 GiB (89%)\n\nAudio\nID                          : 1\nFormat                      : AC-3\nFormat/Info                 : Audio Coding 3\nMode extension              : CM (complete main)\nFormat settings, Endianness : Big\nCodec ID                    : 2000\nDuration                    : 1h 57mn\nBit rate mode               : Constant\nBit rate                    : 160 Kbps\nChannel(s)                  : 2 channels\nLanguage                   : English\nChannel positions           : Front: L R\nSampling rate               : 48.0 KHz\nBit depth                   : 16 bits\nCompression mode            : Lossy\nStream size                 : 135 MiB (10%)\nAlignment                   : Aligned on interleaves\nInterleave, duration        : 32 ms (0.80 video frame)\nInterleave, preload duratio : 32 ms\n\n\nIMDB:\n\n &lt;a href=&quot;\nhttp://www.imdb.com/title/tt2872718/&quot; rel=&quot;nofollow&quot; target=&quot;_NEW&quot;&gt;\nhttp://www.imdb.com/title/tt2872718/&lt;/a&gt;\n\n\nPoster:\n\n &lt;a href=&quot;\nhttp://i.imgur.com/QUYeZxc.jpg&quot; rel=&quot;nofollow&quot; target=&quot;_NEW&quot;&gt;\nhttp://i.imgur.com/QUYeZxc.jpg&lt;/a&gt;\n\n\nScreenshots:\n\n &lt;a href=&quot;\nhttp://i.imgur.com/4S8i8xv.png&quot; rel=&quot;nofollow&quot; target=&quot;_NEW&quot;&gt;\nhttp://i.imgur.com/4S8i8xv.png&lt;/a&gt;\n\n &lt;a href=&quot;\nhttp://i.imgur.com/EMDnhse.png&quot; rel=&quot;nofollow&quot; target=&quot;_NEW&quot;&gt;\nhttp://i.imgur.com/EMDnhse.png&lt;/a&gt;\n\n &lt;a href=&quot;\nhttp://i.imgur.com/nFQeff1.png&quot; rel=&quot;nofollow&quot; target=&quot;_NEW&quot;&gt;\nhttp://i.imgur.com/nFQeff1.png&lt;/a&gt;\n\n\nSEED AND ENJOY!","torrent":{"xt":"urn:btih:3c90d7dcee8fcacf9b55d02fbd7ae7a49e0f6fbd","amp;dn":"Nightcrawler+2014+DVDSCR+XviD+AC3-RAV3N","amp;tr":["udp%3A%2F%2Ftracker.openbittorrent.com%3A80","udp%3A%2F%2Fopen.demonii.com%3A1337","udp%3A%2F%2Ftracker.coppersurfer.tk%3A6969","udp%3A%2F%2Fexodus.desync.com%3A6969"],"infoHash":"3c90d7dcee8fcacf9b55d02fbd7ae7a49e0f6fbd","infoHashBuffer":{"type":"Buffer","data":[60,144,215,220,238,143,202,207,155,85,208,47,189,122,231,164,158,15,111,189]},"announce":[],"urlList":[]}}